<?xml version="1.0" encoding="UTF-8" standalone="no"?>
<svg
   version="1.1"
   x="0px"
   y="0px"
   viewBox="0 0 141.42714 111.97912"
   xml:space="preserve"
   id="svg6"
   sodipodi:docname="whydah-logo.svg"
   inkscape:version="1.4.2 (ebf0e940, 2025-05-08)"
   width="141.42714"
   height="111.97912"
   xmlns:inkscape="http://www.inkscape.org/namespaces/inkscape"
   xmlns:sodipodi="http://sodipodi.sourceforge.net/DTD/sodipodi-0.dtd"
   xmlns="http://www.w3.org/2000/svg"
   xmlns:svg="http://www.w3.org/2000/svg"><defs
     id="defs6" /><sodipodi:namedview
     id="namedview6"
     pagecolor="#505050"
     bordercolor="#eeeeee"
     borderopacity="1"
     inkscape:showpageshadow="0"
     inkscape:pageopacity="0"
     inkscape:pagecheckerboard="0"
     inkscape:deskcolor="#505050"
     inkscape:zoom="3.653665"
     inkscape:cx="69.929784"
     inkscape:cy="96.615318"
     inkscape:window-width="1728"
     inkscape:window-height="1381"
     inkscape:window-x="0"
     inkscape:window-y="31"
     inkscape:window-maximized="0"
     inkscape:current-layer="svg6"><inkscape:page
       x="0"
       y="0"
       width="141.42714"
       height="111.97912"
       id="page1"
       margin="0"
       bleed="0" /></sodipodi:namedview><g
     id="g6"
     transform="translate(17.814134,-12.4)"><path
       d="m 13.9,87.5 c 1,-0.1 2,-0.3 3,-0.4 3.8,-0.3 7.6,-0.5 11.3,-0.8 3.6,-0.3 7.2,-0.7 10.8,-1.2 4.4,-0.6 8.8,-1.5 13,-2.9 0.5,-0.2 1,-0.4 1.5,-0.6 0.2,-0.1 0.5,-0.3 0.6,-0.4 0.3,-0.3 0.4,-0.6 0.2,-1 -0.2,-0.4 -0.6,-0.3 -0.9,-0.2 -1.4,0.4 -2.8,0.8 -4.2,1.1 -4.9,1.2 -9.9,2.1 -15,2.3 -4.8,0.2 -9.7,0.2 -14.5,0.3 -0.1,0 -0.3,0 -0.5,0 0.1,-0.6 0.2,-1.2 0.3,-1.9 0.2,0 0.4,0 0.7,0 2.8,0 5.6,0 8.4,0 0.3,0 0.6,0 0.9,0 0.5,0 0.8,-0.3 0.9,-0.8 0.1,-0.5 -0.2,-0.9 -0.7,-1 -0.3,-0.1 -0.6,-0.1 -0.9,-0.1 -6.5,0 -13.1,-0.1 -19.6,-0.1 -0.4,0 -1,0.2 -1.1,-0.5 0,-0.2 0.6,-0.6 1,-0.6 0.8,-0.1 1.7,-0.2 2.6,-0.2 2,0 4,0 6,0 0.2,-1.2 0.1,-2.3 -0.5,-3.3 -0.3,-0.4 -0.6,-0.5 -1.1,-0.6 -3.4,0 -6.9,-0.1 -10.3,-0.1 -0.3,0 -0.6,0 -0.9,0 0,-0.1 -0.1,-0.1 -0.1,-0.2 0.4,-0.2 0.8,-0.6 1.3,-0.7 1.1,-0.3 2.3,-0.5 3.5,-0.6 5.5,-0.1 10.9,-0.1 16.4,-0.1 0.2,0 0.5,0 0.7,0 0.4,-0.1 0.7,-0.3 0.7,-0.8 0,-0.5 -0.2,-0.8 -0.7,-0.8 -0.4,0 -0.7,0 -1.1,0 C 18.7,71 12.1,71 5.4,70.9 c -0.3,0 -0.5,0 -0.8,-0.1 0.6,-0.7 1.3,-1 2.1,-1 1.8,0 3.7,0 5.5,-0.1 0.4,0 0.7,0 1.1,0 0,-1.2 0,-2.3 0,-3.5 0.2,0 0.4,0 0.5,0 6.3,0 12.6,0 18.8,0 0.5,0 0.6,0.1 0.7,0.6 0.2,1.5 0.6,2.9 1.4,4.2 0.2,0.3 0.4,0.6 0.7,1 0,-0.3 0.1,-0.4 0.1,-0.6 0,-3.1 0,-6.3 0,-9.4 0,-0.4 -0.1,-0.7 -0.6,-0.7 -0.9,0 -1.7,-0.1 -2.6,-0.2 2.5,-3.8 2.5,-7.7 0.3,-11.7 1,0.2 1.9,0.4 2.9,0.7 0,-1 0,-1.9 0,-2.8 0,-0.1 -0.3,-0.3 -0.5,-0.3 -1.9,-0.3 -3.8,-0.5 -5.7,-0.8 -0.1,0 -0.2,0 -0.4,0 0.5,-0.7 1,-1.4 1.3,-2.1 0.4,-0.7 0.6,-1.5 0.9,-2.4 1.1,0.2 2.2,0.5 3.4,0.8 1.3,0.3 2.6,0.6 3.9,1 0.1,0 0.3,0.1 0.4,0.1 0.4,0.1 0.7,0 0.9,-0.4 0.1,-0.4 0,-0.8 -0.4,-1 -0.2,-0.1 -0.5,-0.2 -0.7,-0.3 -6.6,-2 -13.3,-3 -20.2,-2.8 0,0 -0.1,0 -0.2,-0.1 4.1,-1.2 8.2,-1.4 12.5,-1.4 -0.4,-0.7 -0.6,-1.4 -1,-2.1 2,0.4 3.9,0.7 5.8,1.1 0,-0.7 0,-1.5 0,-2.2 0,-0.1 -0.3,-0.3 -0.5,-0.3 -1.7,-0.1 -3.5,-0.2 -5.2,-0.2 -3.6,-0.1 -7.1,-0.1 -10.7,-0.1 -0.2,0 -0.4,0 -0.5,0 0,-0.1 0,-0.1 0,-0.2 0.6,-0.1 1.2,-0.3 1.8,-0.3 2.2,-0.3 4.5,-0.7 6.7,-1 0.4,-0.1 0.7,-0.2 1.1,-0.3 1.1,-0.3 1.9,-0.9 2,-2.2 1.2,0 2.3,0 3.5,0 0.4,0 0.8,0 1.2,0 0.2,0 0.4,-0.3 0.6,-0.4 -0.2,-0.1 -0.4,-0.4 -0.6,-0.4 -2.3,-0.4 -4.5,-0.9 -6.8,-1.3 -0.3,-0.1 -0.5,-0.2 -0.6,-0.5 -0.2,-0.5 -0.5,-1 -0.8,-1.6 2,0.4 4,0.7 5.9,1.1 3.1,0.7 6.1,1.4 9.1,2.1 0.3,0.1 0.6,0.3 0.7,0.5 1.1,2.2 1.1,4.5 0,6.7 -1.7,-0.5 -3.3,-1 -5.1,-1.5 0,0.9 0,1.6 0,2.4 0,0.1 0.3,0.2 0.4,0.3 2,0.5 3.9,1 5.9,1.5 0.2,0.1 0.5,0.2 0.6,0.4 1.3,2.1 1.9,4.3 1.4,6.8 -0.4,1.6 -1.3,2.9 -2.6,3.9 -0.1,0.1 -0.5,0.1 -0.6,0 -1.4,-0.9 -3,-1.4 -4.6,-1.9 -0.1,0 -0.3,-0.1 -0.5,-0.1 0,1 0,1.9 0,2.8 0,0.1 0.3,0.3 0.5,0.3 2.1,0.6 4.3,1.2 6.5,1.7 0.4,0.1 0.6,0.3 0.8,0.8 0.4,1.2 0.4,2.7 0,3.9 -1,-0.2 -2,-0.5 -3,-0.7 -0.2,0 -0.4,-0.1 -0.7,-0.1 -0.5,-0.1 -0.9,0 -1,0.5 -0.1,0.5 0.3,0.7 0.7,0.9 0.8,0.2 1.6,0.4 2.4,0.6 0.3,0.1 0.6,0.2 0.9,0.3 -0.5,1.3 -1.5,2.3 -2.4,3.4 0.5,0.2 1,0.4 1.6,0.6 -0.7,0.5 -1.4,1 -2.1,1.5 -1.2,-1.2 -2.6,-1.8 -4.2,-2.3 0,3.8 0,7.5 0,11.4 1,-0.3 2,-0.5 2.9,-0.8 1.7,-0.5 3.5,-1 5.2,-1.4 0.5,-0.1 0.8,-0.4 0.7,-0.9 -0.1,-0.5 0.2,-0.8 0.7,-0.9 1.8,-0.5 3.6,-1.1 5.3,-1.6 0.3,-0.1 0.5,-0.2 0.5,-0.5 0,-2.6 0,-5.2 0,-7.8 0,0 0,-0.1 -0.1,-0.2 -2.4,0.3 -4.7,1 -7.1,1.8 2.8,-4.3 4,-9 3.5,-14.1 2.9,0.7 5.7,1.5 8.5,2.5 -0.8,0.3 -1.5,0.6 -2.3,0.9 -0.1,0 -0.3,0 -0.4,0 -0.8,-0.3 -1.3,-0.2 -1.5,0.4 -0.2,0.5 0.2,1 0.9,1.2 0,0.1 -0.1,0.2 -0.1,0.3 -0.1,0.5 0.3,1 0.7,1 0.5,0.1 1,-0.3 1,-0.9 0,-0.3 0.1,-0.4 0.4,-0.5 0.7,-0.3 1.4,-0.6 2,-0.9 0.2,-0.1 0.4,0 0.6,0.1 0.5,0.4 1,0.8 1.5,1.2 0.3,0.2 0.5,0.5 0.5,1 0,0.3 0.2,0.7 0.5,0.8 0.2,0.1 0.6,0 0.8,-0.1 0.2,-0.2 0.2,-0.5 0.4,-0.8 0.7,0 1,-0.3 0.9,-0.9 0,-0.6 -0.6,-1 -1.3,-0.9 -0.2,0 -0.5,0 -0.6,-0.2 -0.6,-0.4 -1.2,-0.9 -1.8,-1.4 -0.1,-0.1 -0.3,-0.3 -0.3,-0.4 0,-0.8 0,-1.7 0,-2.6 0.5,0.1 1,0.2 1.5,0.3 0.1,-1 -0.2,-1.9 -0.8,-2.6 -0.9,-1 -2,-1.4 -3.3,-1.2 -1,0.2 -1.5,1.4 -1.1,2.3 0,0.1 0.2,0.1 0.3,0.2 0.2,0.1 0.5,0.1 0.7,0.2 1.1,0.3 1.1,0.3 1,1.6 -0.5,-0.2 -1,-0.3 -1.5,-0.5 -2.4,-0.7 -4.7,-1.4 -7.1,-2 -0.3,-0.1 -0.4,-0.2 -0.5,-0.5 -0.4,-2 -1,-4 -2,-5.8 -0.5,-0.8 -1,-1.6 -1.6,-2.5 2.6,0.7 5.1,1.4 7.7,2.1 0,-0.9 0,-1.7 0,-2.6 0,-0.1 -0.3,-0.2 -0.4,-0.3 -2.1,-0.3 -4.2,-0.5 -6.3,-0.8 -0.1,0 -0.3,0 -0.5,0 3.4,-5.5 2.4,-10.5 -1.6,-15.3 3,0.9 5.8,1.7 8.7,2.6 0,-1.2 0,-2.4 0,-3.6 -0.3,0 -0.7,0 -1,0 -1,-0.1 -2,-0.2 -3,-0.4 C 48,17.9 47.4,17.6 47,17.2 45.7,16 44.3,15.3 42.5,15.7 c 0.6,-1.1 1.8,-1.6 3,-1.3 0.5,0.1 0.9,0.3 1.4,0.5 1.5,0.5 3,0.4 4.3,-0.4 0.9,-0.5 1.8,-1.2 2.7,-1.7 0.2,-0.1 0.3,-0.2 0.6,-0.4 0,0.6 0,1 0,1.5 0,2.8 0,5.5 0,8.3 0,0.4 0.1,0.6 0.5,0.7 1.6,0.5 3.2,1.1 4.7,1.6 0.3,0.1 0.6,0.3 0.8,0.5 1.7,1.8 3.1,3.8 3.5,6.3 0.4,2.8 -0.3,5.3 -2.7,7.1 -0.2,0.2 -0.4,0.2 -0.7,0.1 -1.9,-1 -3.9,-1.7 -6.1,-2.3 0,0.9 0,1.8 0,2.7 0,0.1 0.2,0.2 0.4,0.3 3.1,1 6.2,2 9.3,3 0.3,0.1 0.6,0.3 0.7,0.5 1.9,2.2 3.1,4.7 3.2,7.7 0.2,4 -1.3,7.2 -4.7,9.5 -0.6,0.4 -1.3,0.7 -2,1.1 -0.1,0.1 -0.4,0.1 -0.5,0 -1.4,-1 -3,-1.3 -4.7,-1.5 -0.6,0 -1.1,-0.1 -1.7,-0.1 0,2.6 0,5.1 0,7.8 0.9,-0.2 1.8,-0.5 2.7,-0.7 3.6,-1.1 7.3,-1.6 11,-1.9 2.9,-0.2 5.9,-0.5 8.8,-0.8 0.5,0 0.9,-0.4 0.8,-0.8 0,-0.4 -0.3,-0.7 -0.9,-0.7 -2.2,0.2 -4.3,0.3 -6.5,0.5 -2.4,0.2 -4.8,0.4 -7.2,0.7 0.2,-0.7 0.4,-1.3 0.6,-1.9 0,-0.1 0.2,-0.2 0.4,-0.3 5.3,-1.3 10.5,-2.6 15.8,-3.8 3.1,-0.7 5.9,-2.1 8.6,-3.7 0.4,-0.2 0.8,-0.5 1.3,-0.7 0,0 0.1,-0.1 0.1,-0.1 -3.9,-3.1 -13,-4.2 -19.9,3.6 1.9,-5.2 2.7,-10.4 1.9,-15.9 1,0 1.9,0 2.8,0 0.3,0 0.6,0 0.9,0 0.4,0 0.7,-0.2 0.7,-0.7 0,-0.4 -0.3,-0.8 -0.7,-0.8 -1,0 -1.9,0 -2.9,0 -0.2,0 -0.5,0 -0.7,0 -0.3,0 -0.5,-0.1 -0.6,-0.4 C 70.3,34 68.1,29.8 65.1,25.9 64.9,25 64.5,24.5 64,24 c 1.6,0.5 10.6,7.8 15.3,12.5 4.7,4.7 8.8,9.8 12.1,15.7 1.8,-1 3.5,-2 5.2,-2.9 0,0 0.1,0.1 0.1,0.1 -0.1,0.2 -0.2,0.3 -0.3,0.5 -1.3,1.4 -2.6,2.7 -3.9,4 -2.8,2.7 -5.6,5.4 -8,8.6 -4.3,5.7 -7.4,12 -9.6,18.8 -0.1,0.2 -0.1,0.4 -0.2,0.7 1.5,0 2.9,0 4.3,0 1.4,0.1 2.8,0.2 4.2,0.3 0.2,0 0.5,0.2 0.5,0.4 0,0.3 -0.3,0.4 -0.6,0.4 -6.1,0 -12.1,0 -18.2,0 0,0 -0.1,0 -0.2,-0.1 0.7,-0.3 1.3,-0.6 1.9,-0.8 0.4,-0.2 0.9,-0.4 1.3,-0.6 0.2,-0.1 0.4,-0.4 0.5,-0.6 0.1,-0.2 0,-0.5 -0.1,-0.7 -0.1,-0.1 -0.4,-0.1 -0.5,0 -2.9,1.1 -6,1.9 -9,2.5 -2.5,0.5 -4.9,1 -7.4,1.5 -0.2,0 -0.5,0.1 -0.7,0.2 0,0.1 0,0.1 0,0.2 0.5,0.1 1,0.3 1.4,0.3 3.7,0 7.3,0 11,0 7.2,0 14.5,0 21.7,0.1 2.2,0 4.5,0.3 6.7,0.4 0.1,0 0.1,0 0.2,0.2 -0.9,0.1 -1.8,0.2 -2.7,0.2 -8.6,0.3 -17.3,0.7 -25.9,0.9 -7.5,0.2 -15,0.5 -22.5,0.6 -7.9,0.1 -15.9,0.2 -23.8,0.2 -1,0 -1.9,0 -2.9,0 0,0.1 0,0 0,-0.1 z M 56.7,30 C 57.4,29.7 58,29.6 58.6,29.3 58.8,29.2 59,29 59,28.8 59,28.7 58.9,28.5 58.8,28.3 58.7,28.2 58.6,28.1 58.6,28 58.4,27.6 58,27.6 57.8,28 c -0.1,0.1 -0.3,0.3 -0.4,0.4 -0.5,0.2 -0.9,0.4 -1.4,0.5 -0.2,0 -0.5,0 -0.7,-0.1 -0.6,-0.4 -1.1,-0.7 -1.7,-1.2 -0.2,-0.2 -0.4,-0.4 -0.5,-0.6 -0.2,-0.4 -0.6,-0.6 -0.9,-0.3 -0.1,0.1 -0.3,0.3 -0.5,0.4 -0.1,0.1 -0.2,0.3 -0.2,0.5 0,0.2 0.1,0.3 0.3,0.4 0.8,0.5 1.5,1 2.4,1.6 -0.5,0.2 -0.8,0.3 -1.1,0.4 -0.4,0.2 -0.9,0.4 -1.3,0 -0.1,-0.1 -0.6,0 -0.8,0.2 -0.1,0.1 -0.1,0.5 0,0.7 0.1,0.2 0.4,0.3 0.7,0.5 0,0 -0.1,0.2 -0.1,0.3 0.1,0.3 0.3,0.7 0.6,0.8 0.2,0.1 0.7,-0.1 0.8,-0.3 0.1,-0.6 0.6,-0.7 1,-0.9 0.5,-0.2 0.9,-0.4 1.4,-0.5 0.2,0 0.4,0 0.5,0.1 0.6,0.4 1.1,0.9 1.7,1.3 0.2,0.2 0.4,0.4 0.5,0.7 0,0.2 0.4,0.5 0.7,0.6 0.4,0.1 0.6,-0.2 0.7,-0.6 0,-0.1 0.1,-0.3 0.2,-0.3 0.4,-0.1 0.6,-0.4 0.5,-0.8 -0.1,-0.4 -0.5,-0.5 -1,-0.5 -0.1,0 -0.3,0 -0.5,-0.1 -0.8,-0.3 -1.3,-0.7 -2,-1.2 z m 0.8,44.1 c 1.1,-0.5 2.1,-0.9 3.1,-1.3 0.1,0 0.2,-0.2 0.2,-0.3 0,-1 0,-1.9 0,-3 -1.1,0.4 -2.1,0.9 -3.1,1.3 -0.1,0 -0.2,0.2 -0.2,0.3 0,1 0,2 0,3 z m -10.9,5.2 c 1,-0.3 1.9,-0.6 2.8,-0.9 0.1,0 0.2,-0.2 0.2,-0.3 0,-0.8 0,-1.7 0,-2.6 -1,0.3 -1.9,0.5 -2.8,0.8 -0.1,0 -0.2,0.2 -0.2,0.3 0,0.9 0,1.7 0,2.7 z m -5.3,-0.7 c -1,0.2 -2,0.4 -3,0.5 0,0.9 0,1.7 0,2.6 0.9,-0.2 1.8,-0.4 2.7,-0.6 0.1,0 0.3,-0.2 0.3,-0.3 0,-0.7 0,-1.4 0,-2.2 z m 15.6,-52 c -0.1,-0.5 -0.2,-0.9 -0.4,-1.2 -0.5,-0.8 -1.3,-1.2 -2.3,-1.3 -0.7,0 -1.1,0.2 -1.2,0.8 -0.1,0.6 0,0.7 0.8,0.9 0.5,0.1 0.8,0.4 0.7,0.9 0,0.2 0.1,0.5 0.3,0.6 0.3,0.2 0.6,0.2 1,0.3 0,-0.4 0,-0.8 0,-1.2 0.4,0.1 0.7,0.1 1.1,0.2 z"
       id="path1"
       style="fill:#dad1d0;fill-opacity:1" /><path
       d="m 30.3,64.7 c -7.4,-0.1 -14.7,0.2 -22,-0.2 0,-0.1 0,-0.2 0,-0.2 0.8,-0.2 1.5,-0.5 2.3,-0.6 1.3,-0.2 2.7,-0.4 4.1,-0.6 0.3,0 0.6,-0.1 0.8,-0.2 0.2,-0.1 0.3,-0.3 0.4,-0.5 -0.2,-0.1 -0.3,-0.2 -0.5,-0.2 -1.9,0 -3.8,0 -5.7,-0.1 -2.3,0 -4.6,0 -6.9,0 -0.2,0 -0.4,0 -0.7,-0.1 0.4,-0.6 0.9,-0.9 1.4,-1 0.5,-0.1 1,-0.1 1.5,-0.1 2.5,0 5.1,0 7.6,0 0.3,0 0.6,0 0.9,0 0,-3 0,-5.9 0,-8.9 4,2.6 7.9,5.1 11.9,7.6 0,-0.2 0.1,-0.3 0.1,-0.5 0,-2 0,-3.9 0,-5.9 0,-0.4 -0.1,-0.6 -0.5,-0.7 -2.1,-0.9 -4.3,-1.3 -6.6,-1.6 -1.4,-0.2 -2.9,-0.3 -4.4,-0.4 0.6,-0.1 1.1,-0.2 1.5,-0.4 0.7,-0.3 1.4,-0.6 2.1,-1 0.1,-0.1 0.3,-0.1 0.5,-0.1 1,0.1 1.9,0.2 2.9,0.3 0.1,0 0.3,0 0.4,0 0.4,0 0.7,-0.2 0.7,-0.6 0,-0.4 -0.2,-0.6 -0.6,-0.6 -1,-0.2 -2,-0.3 -3.1,-0.5 -0.6,-0.1 -1.2,-0.2 -1.9,-0.3 0.2,-0.4 0.4,-0.8 0.7,-1.1 0.1,-0.1 0.4,-0.2 0.5,-0.2 2.6,0.4 5.1,0.8 7.7,1.3 1.1,0.2 2.1,0.4 3.2,0.7 0.3,0.1 0.7,0.3 0.9,0.5 2.5,2.3 3.3,5.7 2.2,9 -1,-1.9 -2.5,-3.1 -4.4,-4.1 0,0.3 -0.1,0.5 -0.1,0.7 0,2 0,3.9 0,5.9 0,0.4 0.1,0.7 0.5,0.9 0.1,0.1 0.2,0.1 0.3,0.2 1.8,1.1 1.8,1.1 2.3,3.6 z"
       id="path2"
       style="fill:#dad1d0;fill-opacity:1" /><path
       d="m 37.4,15.8 c 0,1.7 0,3.4 0,5.1 -0.6,0 -1.1,0 -1.7,0 0.2,-1.1 -0.6,-1.3 -1.4,-1.5 -2.1,-0.7 -4.2,-0.5 -6.3,0.2 -1.2,0.4 -2.4,1 -3.6,1.2 -2.4,0.5 -4.6,-0.2 -6.3,-2 -0.1,-0.1 -0.3,-0.3 -0.4,-0.5 1.4,0.2 2.6,0.4 3.9,0.6 2.5,0.4 4.8,0 7.1,-1.2 2.5,-1.3 5.3,-1.9 8.1,-1.9 0.2,0 0.4,0 0.6,0 z"
       id="path3"
       style="fill:#e50914;fill-opacity:1" /><path
       d="m 27,41 c 0,1.5 0,3 0,4.4 -0.6,0 -1.1,0 -1.6,0 0,-0.2 0,-0.3 0,-0.4 -0.1,-1 -0.1,-1 -1.1,-1.4 -3.1,-1 -6.3,-1.5 -9.6,-1.5 -0.6,0 -1.2,0 -1.7,0 0,0 -0.1,0 -0.2,-0.1 0.2,-0.1 0.4,-0.2 0.6,-0.2 2,-0.6 4.1,-0.8 6.2,-0.8 2.2,0 4.5,0 6.7,0 0.1,0 0.4,0 0.7,0 z"
       id="path4"
       style="fill:#dad1d0;fill-opacity:1" /><path
       d="m 35.6,25.6 c 0.1,-0.7 -0.5,-0.8 -0.9,-1 -2,-0.8 -4.1,-1.3 -6.2,-1.4 0.8,-0.5 6.8,-0.8 8.9,-0.5 0,0.9 0,1.9 0,2.9 -0.6,0 -1.2,0 -1.8,0 z"
       id="path5"
       style="fill:#dad1d0;fill-opacity:1" /></g><path
     d="M 2.2092453,83.311927 4.1887304,103.9728 H 9.9327723 L 18.752086,85.521174 20.272048,103.9728 h 6.009151 l 9.809056,-19.900892 c 1.873441,-3.817578 2.739466,-4.312449 4.40082,-4.612907 l 0.229761,-1.11346 h -7.104937 l -0.229762,1.11346 c 1.944137,0.212088 2.191573,1.025091 0.689285,4.453842 L 28.101618,97.362738 27.147224,83.417971 c -0.229762,-3.075271 0.106044,-3.605491 2.014833,-3.95897 l 0.247436,-1.11346 H 16.86097 l -0.229761,1.11346 c 1.855767,0.247436 2.050181,1.961811 1.042764,4.241754 L 11.664822,97.345064 10.798797,83.364949 c -0.159066,-2.75714 0.247436,-3.570143 2.279943,-3.905948 l 0.229761,-1.11346 H 0.26510803 L -1.5972182e-6,79.459001 C 1.3962424,79.724111 1.9264617,80.272004 2.2092453,83.311927 Z m 47.2248617,-5.885433 -9.82673,0.919047 -0.229761,1.078112 0.759981,0.282784 c 0.830676,0.335805 1.042764,0.724633 0.777655,1.891115 l -4.736626,22.269208 h 7.635157 L 46.37651,91.795435 c 0.388827,-1.908789 1.572984,-3.128293 2.739466,-3.128293 1.131134,0 1.572984,0.954395 1.20183,2.633422 l -1.572984,7.617483 c -0.759981,3.605493 0.600916,5.249173 3.605491,5.249173 2.774814,0 5.072431,-1.25485 6.274261,-2.88086 l 0.229762,-1.13113 c -0.388827,0.30045 -0.919047,0.47719 -1.46694,0.47719 -0.883699,0 -1.272526,-0.58324 -0.972069,-2.01483 l 1.413918,-6.716111 C 58.748292,87.642051 57.051591,85.5035 53.340056,85.5035 c -3.092946,0 -5.761716,1.626006 -6.822154,4.878017 z m 17.656301,8.200724 -8.854662,1.025091 -0.229761,1.11346 0.512545,0.159066 c 0.989742,0.353479 1.148808,0.671611 1.2902,1.732049 l 2.085529,17.709326 c -1.855767,1.32555 -5.86776,3.26968 -8.18305,4.24175 v 0.37115 h 7.016568 c 0.813003,-1.2902 1.749723,-2.54505 2.863184,-3.85292 1.661353,-1.89112 3.658512,-4.20641 5.178474,-6.02683 4.736626,-5.673343 7.458418,-10.622056 7.370048,-13.131761 -0.05302,-2.191572 -1.590658,-3.570142 -3.640839,-3.552468 -1.908789,0.01767 -3.464099,1.431591 -3.411077,3.446425 0.0707,1.926463 1.608332,3.428751 3.481773,3.411077 0.371153,-0.01767 0.724633,-0.0707 1.060438,-0.159066 -0.919046,2.562726 -2.84551,5.51428 -5.51428,8.890013 z m 8.536526,11.73552 c 0,4.330122 2.156225,6.892852 5.478933,6.892852 2.827836,0 5.178474,-1.74973 6.044499,-4.931041 -0.0707,0.353479 -0.106044,0.972071 -0.106044,1.290201 -0.0707,2.40366 1.254852,3.55247 3.640839,3.55247 2.774814,0 5.054757,-1.25485 6.221239,-2.88086 l 0.247436,-1.13113 c -0.406502,0.30045 -0.919047,0.47719 -1.502288,0.47719 -0.848351,0 -1.254852,-0.58324 -0.954395,-2.01483 l 4.506864,-21.191096 -9.82673,0.919047 -0.229762,1.078112 0.759981,0.282784 c 0.813003,0.335805 1.025091,0.724633 0.777655,1.891115 l -1.254852,6.026825 C 88.953111,86.493243 87.380128,85.5035 85.170881,85.5035 c -5.567302,0 -9.543947,5.090105 -9.543947,11.859238 z m 7.776549,0.93672 c 0,-3.8706 1.325548,-10.409971 4.206406,-10.409971 0.795329,0 1.343222,0.459523 1.502288,1.042764 l -1.908789,8.960706 c -0.512545,2.032507 -1.431592,3.163643 -2.456683,3.163643 -0.830676,0 -1.343222,-0.75998 -1.343222,-2.757142 z m 14.068487,-0.93672 c 0,4.330122 2.156225,6.892852 5.47893,6.892852 2.81016,0 5.1608,-1.74973 6.0445,-4.931041 -0.0884,0.353479 -0.12372,0.972071 -0.12372,1.290201 -0.0707,2.40366 1.23718,3.55247 3.64084,3.55247 2.75714,0 5.01941,-1.25485 6.20357,-2.88086 l 0.22976,-1.13113 c -0.38883,0.30045 -0.90137,0.47719 -1.48461,0.47719 -0.86603,0 -1.25486,-0.58324 -0.9544,-2.01483 l 2.72179,-12.76061 h -5.01941 l -2.63342,2.244595 c -0.38883,-1.360896 -2.05018,-2.598075 -4.57756,-2.598075 -5.5673,0 -9.52627,5.090105 -9.52627,11.859238 z m 7.75888,0.93672 c 0,-3.8706 1.34322,-10.409971 4.2064,-10.409971 0.813,0 1.34322,0.459523 1.51996,1.042764 l -1.92646,8.960706 c -0.51255,2.032507 -1.41392,3.163643 -2.43901,3.163643 -0.84835,0 -1.36089,-0.75998 -1.36089,-2.757142 z m 26.77606,-20.872964 -9.82673,0.919047 -0.22976,1.078112 0.75998,0.282784 c 0.83068,0.335805 1.04277,0.724633 0.77766,1.891115 l -4.73663,22.269208 h 7.63516 l 2.56273,-12.071325 c 0.38882,-1.908789 1.57298,-3.128293 2.73946,-3.128293 1.13114,0 1.57299,0.954395 1.20183,2.633422 l -1.57298,7.617483 c -0.75998,3.605493 0.60091,5.249173 3.60549,5.249173 2.77481,0 5.07243,-1.25485 6.27426,-2.88086 l 0.22976,-1.13113 c -0.38882,0.30045 -0.91904,0.47719 -1.46694,0.47719 -0.8837,0 -1.27252,-0.58324 -0.97207,-2.01483 l 1.41392,-6.716111 c 0.91905,-4.259428 -0.77765,-6.397979 -4.48919,-6.397979 -3.09294,0 -5.76171,1.626006 -6.82215,4.878017 z"
     id="text1"
     style="font-style:italic;font-weight:800;font-size:36.1963px;line-height:1.2;font-family:'New York Extra Large';-inkscape-font-specification:'New York Extra Large Ultra-Bold Italic';text-align:center;text-anchor:middle;fill:#e50914;stroke-width:0.944877;stroke-linejoin:round"
     aria-label="Whydah" /></svg>
