<?xml version="1.0" encoding="UTF-8" standalone="no"?>
<svg
   version="1.1"
   x="0px"
   y="0px"
   viewBox="0 0 94.599998 75.241425"
   xml:space="preserve"
   id="svg6"
   sodipodi:docname="noun-pirate-ship-6458037.svg"
   inkscape:version="1.4.2 (ebf0e940, 2025-05-08)"
   width="94.599998"
   height="75.241425"
   xmlns:inkscape="http://www.inkscape.org/namespaces/inkscape"
   xmlns:sodipodi="http://sodipodi.sourceforge.net/DTD/sodipodi-0.dtd"
   xmlns="http://www.w3.org/2000/svg"
   xmlns:svg="http://www.w3.org/2000/svg"><defs
     id="defs6" /><sodipodi:namedview
     id="namedview6"
     pagecolor="#505050"
     bordercolor="#eeeeee"
     borderopacity="1"
     inkscape:showpageshadow="0"
     inkscape:pageopacity="0"
     inkscape:pagecheckerboard="0"
     inkscape:deskcolor="#505050"
     inkscape:zoom="6.6670273"
     inkscape:cx="40.797793"
     inkscape:cy="10.199448"
     inkscape:window-width="1728"
     inkscape:window-height="1381"
     inkscape:window-x="0"
     inkscape:window-y="31"
     inkscape:window-maximized="0"
     inkscape:current-layer="svg6" /><g
     id="g6"
     transform="translate(-2.1,-12.4)"><path
       d="m 13.9,87.5 c 1,-0.1 2,-0.3 3,-0.4 3.8,-0.3 7.6,-0.5 11.3,-0.8 3.6,-0.3 7.2,-0.7 10.8,-1.2 4.4,-0.6 8.8,-1.5 13,-2.9 0.5,-0.2 1,-0.4 1.5,-0.6 0.2,-0.1 0.5,-0.3 0.6,-0.4 0.3,-0.3 0.4,-0.6 0.2,-1 -0.2,-0.4 -0.6,-0.3 -0.9,-0.2 -1.4,0.4 -2.8,0.8 -4.2,1.1 -4.9,1.2 -9.9,2.1 -15,2.3 -4.8,0.2 -9.7,0.2 -14.5,0.3 -0.1,0 -0.3,0 -0.5,0 0.1,-0.6 0.2,-1.2 0.3,-1.9 0.2,0 0.4,0 0.7,0 2.8,0 5.6,0 8.4,0 0.3,0 0.6,0 0.9,0 0.5,0 0.8,-0.3 0.9,-0.8 0.1,-0.5 -0.2,-0.9 -0.7,-1 -0.3,-0.1 -0.6,-0.1 -0.9,-0.1 -6.5,0 -13.1,-0.1 -19.6,-0.1 -0.4,0 -1,0.2 -1.1,-0.5 0,-0.2 0.6,-0.6 1,-0.6 0.8,-0.1 1.7,-0.2 2.6,-0.2 2,0 4,0 6,0 0.2,-1.2 0.1,-2.3 -0.5,-3.3 -0.3,-0.4 -0.6,-0.5 -1.1,-0.6 -3.4,0 -6.9,-0.1 -10.3,-0.1 -0.3,0 -0.6,0 -0.9,0 0,-0.1 -0.1,-0.1 -0.1,-0.2 0.4,-0.2 0.8,-0.6 1.3,-0.7 1.1,-0.3 2.3,-0.5 3.5,-0.6 5.5,-0.1 10.9,-0.1 16.4,-0.1 0.2,0 0.5,0 0.7,0 0.4,-0.1 0.7,-0.3 0.7,-0.8 0,-0.5 -0.2,-0.8 -0.7,-0.8 -0.4,0 -0.7,0 -1.1,0 C 18.7,71 12.1,71 5.4,70.9 c -0.3,0 -0.5,0 -0.8,-0.1 0.6,-0.7 1.3,-1 2.1,-1 1.8,0 3.7,0 5.5,-0.1 0.4,0 0.7,0 1.1,0 0,-1.2 0,-2.3 0,-3.5 0.2,0 0.4,0 0.5,0 6.3,0 12.6,0 18.8,0 0.5,0 0.6,0.1 0.7,0.6 0.2,1.5 0.6,2.9 1.4,4.2 0.2,0.3 0.4,0.6 0.7,1 0,-0.3 0.1,-0.4 0.1,-0.6 0,-3.1 0,-6.3 0,-9.4 0,-0.4 -0.1,-0.7 -0.6,-0.7 -0.9,0 -1.7,-0.1 -2.6,-0.2 2.5,-3.8 2.5,-7.7 0.3,-11.7 1,0.2 1.9,0.4 2.9,0.7 0,-1 0,-1.9 0,-2.8 0,-0.1 -0.3,-0.3 -0.5,-0.3 -1.9,-0.3 -3.8,-0.5 -5.7,-0.8 -0.1,0 -0.2,0 -0.4,0 0.5,-0.7 1,-1.4 1.3,-2.1 0.4,-0.7 0.6,-1.5 0.9,-2.4 1.1,0.2 2.2,0.5 3.4,0.8 1.3,0.3 2.6,0.6 3.9,1 0.1,0 0.3,0.1 0.4,0.1 0.4,0.1 0.7,0 0.9,-0.4 0.1,-0.4 0,-0.8 -0.4,-1 -0.2,-0.1 -0.5,-0.2 -0.7,-0.3 -6.6,-2 -13.3,-3 -20.2,-2.8 0,0 -0.1,0 -0.2,-0.1 4.1,-1.2 8.2,-1.4 12.5,-1.4 -0.4,-0.7 -0.6,-1.4 -1,-2.1 2,0.4 3.9,0.7 5.8,1.1 0,-0.7 0,-1.5 0,-2.2 0,-0.1 -0.3,-0.3 -0.5,-0.3 -1.7,-0.1 -3.5,-0.2 -5.2,-0.2 -3.6,-0.1 -7.1,-0.1 -10.7,-0.1 -0.2,0 -0.4,0 -0.5,0 0,-0.1 0,-0.1 0,-0.2 0.6,-0.1 1.2,-0.3 1.8,-0.3 2.2,-0.3 4.5,-0.7 6.7,-1 0.4,-0.1 0.7,-0.2 1.1,-0.3 1.1,-0.3 1.9,-0.9 2,-2.2 1.2,0 2.3,0 3.5,0 0.4,0 0.8,0 1.2,0 0.2,0 0.4,-0.3 0.6,-0.4 -0.2,-0.1 -0.4,-0.4 -0.6,-0.4 -2.3,-0.4 -4.5,-0.9 -6.8,-1.3 -0.3,-0.1 -0.5,-0.2 -0.6,-0.5 -0.2,-0.5 -0.5,-1 -0.8,-1.6 2,0.4 4,0.7 5.9,1.1 3.1,0.7 6.1,1.4 9.1,2.1 0.3,0.1 0.6,0.3 0.7,0.5 1.1,2.2 1.1,4.5 0,6.7 -1.7,-0.5 -3.3,-1 -5.1,-1.5 0,0.9 0,1.6 0,2.4 0,0.1 0.3,0.2 0.4,0.3 2,0.5 3.9,1 5.9,1.5 0.2,0.1 0.5,0.2 0.6,0.4 1.3,2.1 1.9,4.3 1.4,6.8 -0.4,1.6 -1.3,2.9 -2.6,3.9 -0.1,0.1 -0.5,0.1 -0.6,0 -1.4,-0.9 -3,-1.4 -4.6,-1.9 -0.1,0 -0.3,-0.1 -0.5,-0.1 0,1 0,1.9 0,2.8 0,0.1 0.3,0.3 0.5,0.3 2.1,0.6 4.3,1.2 6.5,1.7 0.4,0.1 0.6,0.3 0.8,0.8 0.4,1.2 0.4,2.7 0,3.9 -1,-0.2 -2,-0.5 -3,-0.7 -0.2,0 -0.4,-0.1 -0.7,-0.1 -0.5,-0.1 -0.9,0 -1,0.5 -0.1,0.5 0.3,0.7 0.7,0.9 0.8,0.2 1.6,0.4 2.4,0.6 0.3,0.1 0.6,0.2 0.9,0.3 -0.5,1.3 -1.5,2.3 -2.4,3.4 0.5,0.2 1,0.4 1.6,0.6 -0.7,0.5 -1.4,1 -2.1,1.5 -1.2,-1.2 -2.6,-1.8 -4.2,-2.3 0,3.8 0,7.5 0,11.4 1,-0.3 2,-0.5 2.9,-0.8 1.7,-0.5 3.5,-1 5.2,-1.4 0.5,-0.1 0.8,-0.4 0.7,-0.9 -0.1,-0.5 0.2,-0.8 0.7,-0.9 1.8,-0.5 3.6,-1.1 5.3,-1.6 0.3,-0.1 0.5,-0.2 0.5,-0.5 0,-2.6 0,-5.2 0,-7.8 0,0 0,-0.1 -0.1,-0.2 -2.4,0.3 -4.7,1 -7.1,1.8 2.8,-4.3 4,-9 3.5,-14.1 2.9,0.7 5.7,1.5 8.5,2.5 -0.8,0.3 -1.5,0.6 -2.3,0.9 -0.1,0 -0.3,0 -0.4,0 -0.8,-0.3 -1.3,-0.2 -1.5,0.4 -0.2,0.5 0.2,1 0.9,1.2 0,0.1 -0.1,0.2 -0.1,0.3 -0.1,0.5 0.3,1 0.7,1 0.5,0.1 1,-0.3 1,-0.9 0,-0.3 0.1,-0.4 0.4,-0.5 0.7,-0.3 1.4,-0.6 2,-0.9 0.2,-0.1 0.4,0 0.6,0.1 0.5,0.4 1,0.8 1.5,1.2 0.3,0.2 0.5,0.5 0.5,1 0,0.3 0.2,0.7 0.5,0.8 0.2,0.1 0.6,0 0.8,-0.1 0.2,-0.2 0.2,-0.5 0.4,-0.8 0.7,0 1,-0.3 0.9,-0.9 0,-0.6 -0.6,-1 -1.3,-0.9 -0.2,0 -0.5,0 -0.6,-0.2 -0.6,-0.4 -1.2,-0.9 -1.8,-1.4 -0.1,-0.1 -0.3,-0.3 -0.3,-0.4 0,-0.8 0,-1.7 0,-2.6 0.5,0.1 1,0.2 1.5,0.3 0.1,-1 -0.2,-1.9 -0.8,-2.6 -0.9,-1 -2,-1.4 -3.3,-1.2 -1,0.2 -1.5,1.4 -1.1,2.3 0,0.1 0.2,0.1 0.3,0.2 0.2,0.1 0.5,0.1 0.7,0.2 1.1,0.3 1.1,0.3 1,1.6 -0.5,-0.2 -1,-0.3 -1.5,-0.5 -2.4,-0.7 -4.7,-1.4 -7.1,-2 -0.3,-0.1 -0.4,-0.2 -0.5,-0.5 -0.4,-2 -1,-4 -2,-5.8 -0.5,-0.8 -1,-1.6 -1.6,-2.5 2.6,0.7 5.1,1.4 7.7,2.1 0,-0.9 0,-1.7 0,-2.6 0,-0.1 -0.3,-0.2 -0.4,-0.3 -2.1,-0.3 -4.2,-0.5 -6.3,-0.8 -0.1,0 -0.3,0 -0.5,0 3.4,-5.5 2.4,-10.5 -1.6,-15.3 3,0.9 5.8,1.7 8.7,2.6 0,-1.2 0,-2.4 0,-3.6 -0.3,0 -0.7,0 -1,0 -1,-0.1 -2,-0.2 -3,-0.4 C 48,17.9 47.4,17.6 47,17.2 45.7,16 44.3,15.3 42.5,15.7 c 0.6,-1.1 1.8,-1.6 3,-1.3 0.5,0.1 0.9,0.3 1.4,0.5 1.5,0.5 3,0.4 4.3,-0.4 0.9,-0.5 1.8,-1.2 2.7,-1.7 0.2,-0.1 0.3,-0.2 0.6,-0.4 0,0.6 0,1 0,1.5 0,2.8 0,5.5 0,8.3 0,0.4 0.1,0.6 0.5,0.7 1.6,0.5 3.2,1.1 4.7,1.6 0.3,0.1 0.6,0.3 0.8,0.5 1.7,1.8 3.1,3.8 3.5,6.3 0.4,2.8 -0.3,5.3 -2.7,7.1 -0.2,0.2 -0.4,0.2 -0.7,0.1 -1.9,-1 -3.9,-1.7 -6.1,-2.3 0,0.9 0,1.8 0,2.7 0,0.1 0.2,0.2 0.4,0.3 3.1,1 6.2,2 9.3,3 0.3,0.1 0.6,0.3 0.7,0.5 1.9,2.2 3.1,4.7 3.2,7.7 0.2,4 -1.3,7.2 -4.7,9.5 -0.6,0.4 -1.3,0.7 -2,1.1 -0.1,0.1 -0.4,0.1 -0.5,0 -1.4,-1 -3,-1.3 -4.7,-1.5 -0.6,0 -1.1,-0.1 -1.7,-0.1 0,2.6 0,5.1 0,7.8 0.9,-0.2 1.8,-0.5 2.7,-0.7 3.6,-1.1 7.3,-1.6 11,-1.9 2.9,-0.2 5.9,-0.5 8.8,-0.8 0.5,0 0.9,-0.4 0.8,-0.8 0,-0.4 -0.3,-0.7 -0.9,-0.7 -2.2,0.2 -4.3,0.3 -6.5,0.5 -2.4,0.2 -4.8,0.4 -7.2,0.7 0.2,-0.7 0.4,-1.3 0.6,-1.9 0,-0.1 0.2,-0.2 0.4,-0.3 5.3,-1.3 10.5,-2.6 15.8,-3.8 3.1,-0.7 5.9,-2.1 8.6,-3.7 0.4,-0.2 0.8,-0.5 1.3,-0.7 0,0 0.1,-0.1 0.1,-0.1 -3.9,-3.1 -13,-4.2 -19.9,3.6 1.9,-5.2 2.7,-10.4 1.9,-15.9 1,0 1.9,0 2.8,0 0.3,0 0.6,0 0.9,0 0.4,0 0.7,-0.2 0.7,-0.7 0,-0.4 -0.3,-0.8 -0.7,-0.8 -1,0 -1.9,0 -2.9,0 -0.2,0 -0.5,0 -0.7,0 -0.3,0 -0.5,-0.1 -0.6,-0.4 C 70.3,34 68.1,29.8 65.1,25.9 64.9,25 64.5,24.5 64,24 c 1.6,0.5 10.6,7.8 15.3,12.5 4.7,4.7 8.8,9.8 12.1,15.7 1.8,-1 3.5,-2 5.2,-2.9 0,0 0.1,0.1 0.1,0.1 -0.1,0.2 -0.2,0.3 -0.3,0.5 -1.3,1.4 -2.6,2.7 -3.9,4 -2.8,2.7 -5.6,5.4 -8,8.6 -4.3,5.7 -7.4,12 -9.6,18.8 -0.1,0.2 -0.1,0.4 -0.2,0.7 1.5,0 2.9,0 4.3,0 1.4,0.1 2.8,0.2 4.2,0.3 0.2,0 0.5,0.2 0.5,0.4 0,0.3 -0.3,0.4 -0.6,0.4 -6.1,0 -12.1,0 -18.2,0 0,0 -0.1,0 -0.2,-0.1 0.7,-0.3 1.3,-0.6 1.9,-0.8 0.4,-0.2 0.9,-0.4 1.3,-0.6 0.2,-0.1 0.4,-0.4 0.5,-0.6 0.1,-0.2 0,-0.5 -0.1,-0.7 -0.1,-0.1 -0.4,-0.1 -0.5,0 -2.9,1.1 -6,1.9 -9,2.5 -2.5,0.5 -4.9,1 -7.4,1.5 -0.2,0 -0.5,0.1 -0.7,0.2 0,0.1 0,0.1 0,0.2 0.5,0.1 1,0.3 1.4,0.3 3.7,0 7.3,0 11,0 7.2,0 14.5,0 21.7,0.1 2.2,0 4.5,0.3 6.7,0.4 0.1,0 0.1,0 0.2,0.2 -0.9,0.1 -1.8,0.2 -2.7,0.2 -8.6,0.3 -17.3,0.7 -25.9,0.9 -7.5,0.2 -15,0.5 -22.5,0.6 -7.9,0.1 -15.9,0.2 -23.8,0.2 -1,0 -1.9,0 -2.9,0 0,0.1 0,0 0,-0.1 z M 56.7,30 C 57.4,29.7 58,29.6 58.6,29.3 58.8,29.2 59,29 59,28.8 59,28.7 58.9,28.5 58.8,28.3 58.7,28.2 58.6,28.1 58.6,28 58.4,27.6 58,27.6 57.8,28 c -0.1,0.1 -0.3,0.3 -0.4,0.4 -0.5,0.2 -0.9,0.4 -1.4,0.5 -0.2,0 -0.5,0 -0.7,-0.1 -0.6,-0.4 -1.1,-0.7 -1.7,-1.2 -0.2,-0.2 -0.4,-0.4 -0.5,-0.6 -0.2,-0.4 -0.6,-0.6 -0.9,-0.3 -0.1,0.1 -0.3,0.3 -0.5,0.4 -0.1,0.1 -0.2,0.3 -0.2,0.5 0,0.2 0.1,0.3 0.3,0.4 0.8,0.5 1.5,1 2.4,1.6 -0.5,0.2 -0.8,0.3 -1.1,0.4 -0.4,0.2 -0.9,0.4 -1.3,0 -0.1,-0.1 -0.6,0 -0.8,0.2 -0.1,0.1 -0.1,0.5 0,0.7 0.1,0.2 0.4,0.3 0.7,0.5 0,0 -0.1,0.2 -0.1,0.3 0.1,0.3 0.3,0.7 0.6,0.8 0.2,0.1 0.7,-0.1 0.8,-0.3 0.1,-0.6 0.6,-0.7 1,-0.9 0.5,-0.2 0.9,-0.4 1.4,-0.5 0.2,0 0.4,0 0.5,0.1 0.6,0.4 1.1,0.9 1.7,1.3 0.2,0.2 0.4,0.4 0.5,0.7 0,0.2 0.4,0.5 0.7,0.6 0.4,0.1 0.6,-0.2 0.7,-0.6 0,-0.1 0.1,-0.3 0.2,-0.3 0.4,-0.1 0.6,-0.4 0.5,-0.8 -0.1,-0.4 -0.5,-0.5 -1,-0.5 -0.1,0 -0.3,0 -0.5,-0.1 -0.8,-0.3 -1.3,-0.7 -2,-1.2 z m 0.8,44.1 c 1.1,-0.5 2.1,-0.9 3.1,-1.3 0.1,0 0.2,-0.2 0.2,-0.3 0,-1 0,-1.9 0,-3 -1.1,0.4 -2.1,0.9 -3.1,1.3 -0.1,0 -0.2,0.2 -0.2,0.3 0,1 0,2 0,3 z m -10.9,5.2 c 1,-0.3 1.9,-0.6 2.8,-0.9 0.1,0 0.2,-0.2 0.2,-0.3 0,-0.8 0,-1.7 0,-2.6 -1,0.3 -1.9,0.5 -2.8,0.8 -0.1,0 -0.2,0.2 -0.2,0.3 0,0.9 0,1.7 0,2.7 z m -5.3,-0.7 c -1,0.2 -2,0.4 -3,0.5 0,0.9 0,1.7 0,2.6 0.9,-0.2 1.8,-0.4 2.7,-0.6 0.1,0 0.3,-0.2 0.3,-0.3 0,-0.7 0,-1.4 0,-2.2 z m 15.6,-52 c -0.1,-0.5 -0.2,-0.9 -0.4,-1.2 -0.5,-0.8 -1.3,-1.2 -2.3,-1.3 -0.7,0 -1.1,0.2 -1.2,0.8 -0.1,0.6 0,0.7 0.8,0.9 0.5,0.1 0.8,0.4 0.7,0.9 0,0.2 0.1,0.5 0.3,0.6 0.3,0.2 0.6,0.2 1,0.3 0,-0.4 0,-0.8 0,-1.2 0.4,0.1 0.7,0.1 1.1,0.2 z"
       id="path1"
       style="fill:#dad1d0;fill-opacity:1" /><path
       d="m 30.3,64.7 c -7.4,-0.1 -14.7,0.2 -22,-0.2 0,-0.1 0,-0.2 0,-0.2 0.8,-0.2 1.5,-0.5 2.3,-0.6 1.3,-0.2 2.7,-0.4 4.1,-0.6 0.3,0 0.6,-0.1 0.8,-0.2 0.2,-0.1 0.3,-0.3 0.4,-0.5 -0.2,-0.1 -0.3,-0.2 -0.5,-0.2 -1.9,0 -3.8,0 -5.7,-0.1 -2.3,0 -4.6,0 -6.9,0 -0.2,0 -0.4,0 -0.7,-0.1 0.4,-0.6 0.9,-0.9 1.4,-1 0.5,-0.1 1,-0.1 1.5,-0.1 2.5,0 5.1,0 7.6,0 0.3,0 0.6,0 0.9,0 0,-3 0,-5.9 0,-8.9 4,2.6 7.9,5.1 11.9,7.6 0,-0.2 0.1,-0.3 0.1,-0.5 0,-2 0,-3.9 0,-5.9 0,-0.4 -0.1,-0.6 -0.5,-0.7 -2.1,-0.9 -4.3,-1.3 -6.6,-1.6 -1.4,-0.2 -2.9,-0.3 -4.4,-0.4 0.6,-0.1 1.1,-0.2 1.5,-0.4 0.7,-0.3 1.4,-0.6 2.1,-1 0.1,-0.1 0.3,-0.1 0.5,-0.1 1,0.1 1.9,0.2 2.9,0.3 0.1,0 0.3,0 0.4,0 0.4,0 0.7,-0.2 0.7,-0.6 0,-0.4 -0.2,-0.6 -0.6,-0.6 -1,-0.2 -2,-0.3 -3.1,-0.5 -0.6,-0.1 -1.2,-0.2 -1.9,-0.3 0.2,-0.4 0.4,-0.8 0.7,-1.1 0.1,-0.1 0.4,-0.2 0.5,-0.2 2.6,0.4 5.1,0.8 7.7,1.3 1.1,0.2 2.1,0.4 3.2,0.7 0.3,0.1 0.7,0.3 0.9,0.5 2.5,2.3 3.3,5.7 2.2,9 -1,-1.9 -2.5,-3.1 -4.4,-4.1 0,0.3 -0.1,0.5 -0.1,0.7 0,2 0,3.9 0,5.9 0,0.4 0.1,0.7 0.5,0.9 0.1,0.1 0.2,0.1 0.3,0.2 1.8,1.1 1.8,1.1 2.3,3.6 z"
       id="path2"
       style="fill:#dad1d0;fill-opacity:1" /><path
       d="m 37.4,15.8 c 0,1.7 0,3.4 0,5.1 -0.6,0 -1.1,0 -1.7,0 0.2,-1.1 -0.6,-1.3 -1.4,-1.5 -2.1,-0.7 -4.2,-0.5 -6.3,0.2 -1.2,0.4 -2.4,1 -3.6,1.2 -2.4,0.5 -4.6,-0.2 -6.3,-2 -0.1,-0.1 -0.3,-0.3 -0.4,-0.5 1.4,0.2 2.6,0.4 3.9,0.6 2.5,0.4 4.8,0 7.1,-1.2 2.5,-1.3 5.3,-1.9 8.1,-1.9 0.2,0 0.4,0 0.6,0 z"
       id="path3"
       style="fill:#e50914;fill-opacity:1" /><path
       d="m 27,41 c 0,1.5 0,3 0,4.4 -0.6,0 -1.1,0 -1.6,0 0,-0.2 0,-0.3 0,-0.4 -0.1,-1 -0.1,-1 -1.1,-1.4 -3.1,-1 -6.3,-1.5 -9.6,-1.5 -0.6,0 -1.2,0 -1.7,0 0,0 -0.1,0 -0.2,-0.1 0.2,-0.1 0.4,-0.2 0.6,-0.2 2,-0.6 4.1,-0.8 6.2,-0.8 2.2,0 4.5,0 6.7,0 0.1,0 0.4,0 0.7,0 z"
       id="path4"
       style="fill:#dad1d0;fill-opacity:1" /><path
       d="m 35.6,25.6 c 0.1,-0.7 -0.5,-0.8 -0.9,-1 -2,-0.8 -4.1,-1.3 -6.2,-1.4 0.8,-0.5 6.8,-0.8 8.9,-0.5 0,0.9 0,1.9 0,2.9 -0.6,0 -1.2,0 -1.8,0 z"
       id="path5"
       style="fill:#dad1d0;fill-opacity:1" /></g></svg>
