<?xml version="1.0" encoding="UTF-8" standalone="no"?>
<svg
   version="1.1"
   x="0px"
   y="0px"
   viewBox="0 0 288.68368 83.047876"
   xml:space="preserve"
   id="svg6"
   sodipodi:docname="whydah-logo-hor.svg"
   inkscape:version="1.4.2 (ebf0e940, 2025-05-08)"
   width="288.68369"
   height="83.047874"
   xmlns:inkscape="http://www.inkscape.org/namespaces/inkscape"
   xmlns:sodipodi="http://sodipodi.sourceforge.net/DTD/sodipodi-0.dtd"
   xmlns="http://www.w3.org/2000/svg"
   xmlns:svg="http://www.w3.org/2000/svg"><defs
     id="defs6" /><sodipodi:namedview
     id="namedview6"
     pagecolor="#505050"
     bordercolor="#eeeeee"
     borderopacity="1"
     inkscape:showpageshadow="0"
     inkscape:pageopacity="0"
     inkscape:pagecheckerboard="0"
     inkscape:deskcolor="#505050"
     inkscape:zoom="2.3270429"
     inkscape:cx="154.48791"
     inkscape:cy="129.34871"
     inkscape:window-width="1728"
     inkscape:window-height="1381"
     inkscape:window-x="0"
     inkscape:window-y="31"
     inkscape:window-maximized="0"
     inkscape:current-layer="svg6"><inkscape:page
       x="0"
       y="0"
       width="288.68369"
       height="83.047874"
       id="page1"
       margin="0"
       bleed="0" /></sodipodi:namedview><g
     id="g6"
     transform="matrix(1.103752,0,0,1.103752,-2.3178792,-13.686523)"
     style="stroke-width:0.906001"><path
       d="m 13.9,87.5 c 1,-0.1 2,-0.3 3,-0.4 3.8,-0.3 7.6,-0.5 11.3,-0.8 3.6,-0.3 7.2,-0.7 10.8,-1.2 4.4,-0.6 8.8,-1.5 13,-2.9 0.5,-0.2 1,-0.4 1.5,-0.6 0.2,-0.1 0.5,-0.3 0.6,-0.4 0.3,-0.3 0.4,-0.6 0.2,-1 -0.2,-0.4 -0.6,-0.3 -0.9,-0.2 -1.4,0.4 -2.8,0.8 -4.2,1.1 -4.9,1.2 -9.9,2.1 -15,2.3 -4.8,0.2 -9.7,0.2 -14.5,0.3 -0.1,0 -0.3,0 -0.5,0 0.1,-0.6 0.2,-1.2 0.3,-1.9 0.2,0 0.4,0 0.7,0 2.8,0 5.6,0 8.4,0 0.3,0 0.6,0 0.9,0 0.5,0 0.8,-0.3 0.9,-0.8 0.1,-0.5 -0.2,-0.9 -0.7,-1 -0.3,-0.1 -0.6,-0.1 -0.9,-0.1 -6.5,0 -13.1,-0.1 -19.6,-0.1 -0.4,0 -1,0.2 -1.1,-0.5 0,-0.2 0.6,-0.6 1,-0.6 0.8,-0.1 1.7,-0.2 2.6,-0.2 2,0 4,0 6,0 0.2,-1.2 0.1,-2.3 -0.5,-3.3 -0.3,-0.4 -0.6,-0.5 -1.1,-0.6 -3.4,0 -6.9,-0.1 -10.3,-0.1 -0.3,0 -0.6,0 -0.9,0 0,-0.1 -0.1,-0.1 -0.1,-0.2 0.4,-0.2 0.8,-0.6 1.3,-0.7 1.1,-0.3 2.3,-0.5 3.5,-0.6 5.5,-0.1 10.9,-0.1 16.4,-0.1 0.2,0 0.5,0 0.7,0 0.4,-0.1 0.7,-0.3 0.7,-0.8 0,-0.5 -0.2,-0.8 -0.7,-0.8 -0.4,0 -0.7,0 -1.1,0 C 18.7,71 12.1,71 5.4,70.9 c -0.3,0 -0.5,0 -0.8,-0.1 0.6,-0.7 1.3,-1 2.1,-1 1.8,0 3.7,0 5.5,-0.1 0.4,0 0.7,0 1.1,0 0,-1.2 0,-2.3 0,-3.5 0.2,0 0.4,0 0.5,0 6.3,0 12.6,0 18.8,0 0.5,0 0.6,0.1 0.7,0.6 0.2,1.5 0.6,2.9 1.4,4.2 0.2,0.3 0.4,0.6 0.7,1 0,-0.3 0.1,-0.4 0.1,-0.6 0,-3.1 0,-6.3 0,-9.4 0,-0.4 -0.1,-0.7 -0.6,-0.7 -0.9,0 -1.7,-0.1 -2.6,-0.2 2.5,-3.8 2.5,-7.7 0.3,-11.7 1,0.2 1.9,0.4 2.9,0.7 0,-1 0,-1.9 0,-2.8 0,-0.1 -0.3,-0.3 -0.5,-0.3 -1.9,-0.3 -3.8,-0.5 -5.7,-0.8 -0.1,0 -0.2,0 -0.4,0 0.5,-0.7 1,-1.4 1.3,-2.1 0.4,-0.7 0.6,-1.5 0.9,-2.4 1.1,0.2 2.2,0.5 3.4,0.8 1.3,0.3 2.6,0.6 3.9,1 0.1,0 0.3,0.1 0.4,0.1 0.4,0.1 0.7,0 0.9,-0.4 0.1,-0.4 0,-0.8 -0.4,-1 -0.2,-0.1 -0.5,-0.2 -0.7,-0.3 -6.6,-2 -13.3,-3 -20.2,-2.8 0,0 -0.1,0 -0.2,-0.1 4.1,-1.2 8.2,-1.4 12.5,-1.4 -0.4,-0.7 -0.6,-1.4 -1,-2.1 2,0.4 3.9,0.7 5.8,1.1 0,-0.7 0,-1.5 0,-2.2 0,-0.1 -0.3,-0.3 -0.5,-0.3 -1.7,-0.1 -3.5,-0.2 -5.2,-0.2 -3.6,-0.1 -7.1,-0.1 -10.7,-0.1 -0.2,0 -0.4,0 -0.5,0 0,-0.1 0,-0.1 0,-0.2 0.6,-0.1 1.2,-0.3 1.8,-0.3 2.2,-0.3 4.5,-0.7 6.7,-1 0.4,-0.1 0.7,-0.2 1.1,-0.3 1.1,-0.3 1.9,-0.9 2,-2.2 1.2,0 2.3,0 3.5,0 0.4,0 0.8,0 1.2,0 0.2,0 0.4,-0.3 0.6,-0.4 -0.2,-0.1 -0.4,-0.4 -0.6,-0.4 -2.3,-0.4 -4.5,-0.9 -6.8,-1.3 -0.3,-0.1 -0.5,-0.2 -0.6,-0.5 -0.2,-0.5 -0.5,-1 -0.8,-1.6 2,0.4 4,0.7 5.9,1.1 3.1,0.7 6.1,1.4 9.1,2.1 0.3,0.1 0.6,0.3 0.7,0.5 1.1,2.2 1.1,4.5 0,6.7 -1.7,-0.5 -3.3,-1 -5.1,-1.5 0,0.9 0,1.6 0,2.4 0,0.1 0.3,0.2 0.4,0.3 2,0.5 3.9,1 5.9,1.5 0.2,0.1 0.5,0.2 0.6,0.4 1.3,2.1 1.9,4.3 1.4,6.8 -0.4,1.6 -1.3,2.9 -2.6,3.9 -0.1,0.1 -0.5,0.1 -0.6,0 -1.4,-0.9 -3,-1.4 -4.6,-1.9 -0.1,0 -0.3,-0.1 -0.5,-0.1 0,1 0,1.9 0,2.8 0,0.1 0.3,0.3 0.5,0.3 2.1,0.6 4.3,1.2 6.5,1.7 0.4,0.1 0.6,0.3 0.8,0.8 0.4,1.2 0.4,2.7 0,3.9 -1,-0.2 -2,-0.5 -3,-0.7 -0.2,0 -0.4,-0.1 -0.7,-0.1 -0.5,-0.1 -0.9,0 -1,0.5 -0.1,0.5 0.3,0.7 0.7,0.9 0.8,0.2 1.6,0.4 2.4,0.6 0.3,0.1 0.6,0.2 0.9,0.3 -0.5,1.3 -1.5,2.3 -2.4,3.4 0.5,0.2 1,0.4 1.6,0.6 -0.7,0.5 -1.4,1 -2.1,1.5 -1.2,-1.2 -2.6,-1.8 -4.2,-2.3 0,3.8 0,7.5 0,11.4 1,-0.3 2,-0.5 2.9,-0.8 1.7,-0.5 3.5,-1 5.2,-1.4 0.5,-0.1 0.8,-0.4 0.7,-0.9 -0.1,-0.5 0.2,-0.8 0.7,-0.9 1.8,-0.5 3.6,-1.1 5.3,-1.6 0.3,-0.1 0.5,-0.2 0.5,-0.5 0,-2.6 0,-5.2 0,-7.8 0,0 0,-0.1 -0.1,-0.2 -2.4,0.3 -4.7,1 -7.1,1.8 2.8,-4.3 4,-9 3.5,-14.1 2.9,0.7 5.7,1.5 8.5,2.5 -0.8,0.3 -1.5,0.6 -2.3,0.9 -0.1,0 -0.3,0 -0.4,0 -0.8,-0.3 -1.3,-0.2 -1.5,0.4 -0.2,0.5 0.2,1 0.9,1.2 0,0.1 -0.1,0.2 -0.1,0.3 -0.1,0.5 0.3,1 0.7,1 0.5,0.1 1,-0.3 1,-0.9 0,-0.3 0.1,-0.4 0.4,-0.5 0.7,-0.3 1.4,-0.6 2,-0.9 0.2,-0.1 0.4,0 0.6,0.1 0.5,0.4 1,0.8 1.5,1.2 0.3,0.2 0.5,0.5 0.5,1 0,0.3 0.2,0.7 0.5,0.8 0.2,0.1 0.6,0 0.8,-0.1 0.2,-0.2 0.2,-0.5 0.4,-0.8 0.7,0 1,-0.3 0.9,-0.9 0,-0.6 -0.6,-1 -1.3,-0.9 -0.2,0 -0.5,0 -0.6,-0.2 -0.6,-0.4 -1.2,-0.9 -1.8,-1.4 -0.1,-0.1 -0.3,-0.3 -0.3,-0.4 0,-0.8 0,-1.7 0,-2.6 0.5,0.1 1,0.2 1.5,0.3 0.1,-1 -0.2,-1.9 -0.8,-2.6 -0.9,-1 -2,-1.4 -3.3,-1.2 -1,0.2 -1.5,1.4 -1.1,2.3 0,0.1 0.2,0.1 0.3,0.2 0.2,0.1 0.5,0.1 0.7,0.2 1.1,0.3 1.1,0.3 1,1.6 -0.5,-0.2 -1,-0.3 -1.5,-0.5 -2.4,-0.7 -4.7,-1.4 -7.1,-2 -0.3,-0.1 -0.4,-0.2 -0.5,-0.5 -0.4,-2 -1,-4 -2,-5.8 -0.5,-0.8 -1,-1.6 -1.6,-2.5 2.6,0.7 5.1,1.4 7.7,2.1 0,-0.9 0,-1.7 0,-2.6 0,-0.1 -0.3,-0.2 -0.4,-0.3 -2.1,-0.3 -4.2,-0.5 -6.3,-0.8 -0.1,0 -0.3,0 -0.5,0 3.4,-5.5 2.4,-10.5 -1.6,-15.3 3,0.9 5.8,1.7 8.7,2.6 0,-1.2 0,-2.4 0,-3.6 -0.3,0 -0.7,0 -1,0 -1,-0.1 -2,-0.2 -3,-0.4 C 48,17.9 47.4,17.6 47,17.2 45.7,16 44.3,15.3 42.5,15.7 c 0.6,-1.1 1.8,-1.6 3,-1.3 0.5,0.1 0.9,0.3 1.4,0.5 1.5,0.5 3,0.4 4.3,-0.4 0.9,-0.5 1.8,-1.2 2.7,-1.7 0.2,-0.1 0.3,-0.2 0.6,-0.4 0,0.6 0,1 0,1.5 0,2.8 0,5.5 0,8.3 0,0.4 0.1,0.6 0.5,0.7 1.6,0.5 3.2,1.1 4.7,1.6 0.3,0.1 0.6,0.3 0.8,0.5 1.7,1.8 3.1,3.8 3.5,6.3 0.4,2.8 -0.3,5.3 -2.7,7.1 -0.2,0.2 -0.4,0.2 -0.7,0.1 -1.9,-1 -3.9,-1.7 -6.1,-2.3 0,0.9 0,1.8 0,2.7 0,0.1 0.2,0.2 0.4,0.3 3.1,1 6.2,2 9.3,3 0.3,0.1 0.6,0.3 0.7,0.5 1.9,2.2 3.1,4.7 3.2,7.7 0.2,4 -1.3,7.2 -4.7,9.5 -0.6,0.4 -1.3,0.7 -2,1.1 -0.1,0.1 -0.4,0.1 -0.5,0 -1.4,-1 -3,-1.3 -4.7,-1.5 -0.6,0 -1.1,-0.1 -1.7,-0.1 0,2.6 0,5.1 0,7.8 0.9,-0.2 1.8,-0.5 2.7,-0.7 3.6,-1.1 7.3,-1.6 11,-1.9 2.9,-0.2 5.9,-0.5 8.8,-0.8 0.5,0 0.9,-0.4 0.8,-0.8 0,-0.4 -0.3,-0.7 -0.9,-0.7 -2.2,0.2 -4.3,0.3 -6.5,0.5 -2.4,0.2 -4.8,0.4 -7.2,0.7 0.2,-0.7 0.4,-1.3 0.6,-1.9 0,-0.1 0.2,-0.2 0.4,-0.3 5.3,-1.3 10.5,-2.6 15.8,-3.8 3.1,-0.7 5.9,-2.1 8.6,-3.7 0.4,-0.2 0.8,-0.5 1.3,-0.7 0,0 0.1,-0.1 0.1,-0.1 -3.9,-3.1 -13,-4.2 -19.9,3.6 1.9,-5.2 2.7,-10.4 1.9,-15.9 1,0 1.9,0 2.8,0 0.3,0 0.6,0 0.9,0 0.4,0 0.7,-0.2 0.7,-0.7 0,-0.4 -0.3,-0.8 -0.7,-0.8 -1,0 -1.9,0 -2.9,0 -0.2,0 -0.5,0 -0.7,0 -0.3,0 -0.5,-0.1 -0.6,-0.4 C 70.3,34 68.1,29.8 65.1,25.9 64.9,25 64.5,24.5 64,24 c 1.6,0.5 10.6,7.8 15.3,12.5 4.7,4.7 8.8,9.8 12.1,15.7 1.8,-1 3.5,-2 5.2,-2.9 0,0 0.1,0.1 0.1,0.1 -0.1,0.2 -0.2,0.3 -0.3,0.5 -1.3,1.4 -2.6,2.7 -3.9,4 -2.8,2.7 -5.6,5.4 -8,8.6 -4.3,5.7 -7.4,12 -9.6,18.8 -0.1,0.2 -0.1,0.4 -0.2,0.7 1.5,0 2.9,0 4.3,0 1.4,0.1 2.8,0.2 4.2,0.3 0.2,0 0.5,0.2 0.5,0.4 0,0.3 -0.3,0.4 -0.6,0.4 -6.1,0 -12.1,0 -18.2,0 0,0 -0.1,0 -0.2,-0.1 0.7,-0.3 1.3,-0.6 1.9,-0.8 0.4,-0.2 0.9,-0.4 1.3,-0.6 0.2,-0.1 0.4,-0.4 0.5,-0.6 0.1,-0.2 0,-0.5 -0.1,-0.7 -0.1,-0.1 -0.4,-0.1 -0.5,0 -2.9,1.1 -6,1.9 -9,2.5 -2.5,0.5 -4.9,1 -7.4,1.5 -0.2,0 -0.5,0.1 -0.7,0.2 0,0.1 0,0.1 0,0.2 0.5,0.1 1,0.3 1.4,0.3 3.7,0 7.3,0 11,0 7.2,0 14.5,0 21.7,0.1 2.2,0 4.5,0.3 6.7,0.4 0.1,0 0.1,0 0.2,0.2 -0.9,0.1 -1.8,0.2 -2.7,0.2 -8.6,0.3 -17.3,0.7 -25.9,0.9 -7.5,0.2 -15,0.5 -22.5,0.6 -7.9,0.1 -15.9,0.2 -23.8,0.2 -1,0 -1.9,0 -2.9,0 0,0.1 0,0 0,-0.1 z M 56.7,30 C 57.4,29.7 58,29.6 58.6,29.3 58.8,29.2 59,29 59,28.8 59,28.7 58.9,28.5 58.8,28.3 58.7,28.2 58.6,28.1 58.6,28 58.4,27.6 58,27.6 57.8,28 c -0.1,0.1 -0.3,0.3 -0.4,0.4 -0.5,0.2 -0.9,0.4 -1.4,0.5 -0.2,0 -0.5,0 -0.7,-0.1 -0.6,-0.4 -1.1,-0.7 -1.7,-1.2 -0.2,-0.2 -0.4,-0.4 -0.5,-0.6 -0.2,-0.4 -0.6,-0.6 -0.9,-0.3 -0.1,0.1 -0.3,0.3 -0.5,0.4 -0.1,0.1 -0.2,0.3 -0.2,0.5 0,0.2 0.1,0.3 0.3,0.4 0.8,0.5 1.5,1 2.4,1.6 -0.5,0.2 -0.8,0.3 -1.1,0.4 -0.4,0.2 -0.9,0.4 -1.3,0 -0.1,-0.1 -0.6,0 -0.8,0.2 -0.1,0.1 -0.1,0.5 0,0.7 0.1,0.2 0.4,0.3 0.7,0.5 0,0 -0.1,0.2 -0.1,0.3 0.1,0.3 0.3,0.7 0.6,0.8 0.2,0.1 0.7,-0.1 0.8,-0.3 0.1,-0.6 0.6,-0.7 1,-0.9 0.5,-0.2 0.9,-0.4 1.4,-0.5 0.2,0 0.4,0 0.5,0.1 0.6,0.4 1.1,0.9 1.7,1.3 0.2,0.2 0.4,0.4 0.5,0.7 0,0.2 0.4,0.5 0.7,0.6 0.4,0.1 0.6,-0.2 0.7,-0.6 0,-0.1 0.1,-0.3 0.2,-0.3 0.4,-0.1 0.6,-0.4 0.5,-0.8 -0.1,-0.4 -0.5,-0.5 -1,-0.5 -0.1,0 -0.3,0 -0.5,-0.1 -0.8,-0.3 -1.3,-0.7 -2,-1.2 z m 0.8,44.1 c 1.1,-0.5 2.1,-0.9 3.1,-1.3 0.1,0 0.2,-0.2 0.2,-0.3 0,-1 0,-1.9 0,-3 -1.1,0.4 -2.1,0.9 -3.1,1.3 -0.1,0 -0.2,0.2 -0.2,0.3 0,1 0,2 0,3 z m -10.9,5.2 c 1,-0.3 1.9,-0.6 2.8,-0.9 0.1,0 0.2,-0.2 0.2,-0.3 0,-0.8 0,-1.7 0,-2.6 -1,0.3 -1.9,0.5 -2.8,0.8 -0.1,0 -0.2,0.2 -0.2,0.3 0,0.9 0,1.7 0,2.7 z m -5.3,-0.7 c -1,0.2 -2,0.4 -3,0.5 0,0.9 0,1.7 0,2.6 0.9,-0.2 1.8,-0.4 2.7,-0.6 0.1,0 0.3,-0.2 0.3,-0.3 0,-0.7 0,-1.4 0,-2.2 z m 15.6,-52 c -0.1,-0.5 -0.2,-0.9 -0.4,-1.2 -0.5,-0.8 -1.3,-1.2 -2.3,-1.3 -0.7,0 -1.1,0.2 -1.2,0.8 -0.1,0.6 0,0.7 0.8,0.9 0.5,0.1 0.8,0.4 0.7,0.9 0,0.2 0.1,0.5 0.3,0.6 0.3,0.2 0.6,0.2 1,0.3 0,-0.4 0,-0.8 0,-1.2 0.4,0.1 0.7,0.1 1.1,0.2 z"
       id="path1"
       style="fill:#dad1d0;fill-opacity:1;stroke-width:0.906001" /><path
       d="m 30.3,64.7 c -7.4,-0.1 -14.7,0.2 -22,-0.2 0,-0.1 0,-0.2 0,-0.2 0.8,-0.2 1.5,-0.5 2.3,-0.6 1.3,-0.2 2.7,-0.4 4.1,-0.6 0.3,0 0.6,-0.1 0.8,-0.2 0.2,-0.1 0.3,-0.3 0.4,-0.5 -0.2,-0.1 -0.3,-0.2 -0.5,-0.2 -1.9,0 -3.8,0 -5.7,-0.1 -2.3,0 -4.6,0 -6.9,0 -0.2,0 -0.4,0 -0.7,-0.1 0.4,-0.6 0.9,-0.9 1.4,-1 0.5,-0.1 1,-0.1 1.5,-0.1 2.5,0 5.1,0 7.6,0 0.3,0 0.6,0 0.9,0 0,-3 0,-5.9 0,-8.9 4,2.6 7.9,5.1 11.9,7.6 0,-0.2 0.1,-0.3 0.1,-0.5 0,-2 0,-3.9 0,-5.9 0,-0.4 -0.1,-0.6 -0.5,-0.7 -2.1,-0.9 -4.3,-1.3 -6.6,-1.6 -1.4,-0.2 -2.9,-0.3 -4.4,-0.4 0.6,-0.1 1.1,-0.2 1.5,-0.4 0.7,-0.3 1.4,-0.6 2.1,-1 0.1,-0.1 0.3,-0.1 0.5,-0.1 1,0.1 1.9,0.2 2.9,0.3 0.1,0 0.3,0 0.4,0 0.4,0 0.7,-0.2 0.7,-0.6 0,-0.4 -0.2,-0.6 -0.6,-0.6 -1,-0.2 -2,-0.3 -3.1,-0.5 -0.6,-0.1 -1.2,-0.2 -1.9,-0.3 0.2,-0.4 0.4,-0.8 0.7,-1.1 0.1,-0.1 0.4,-0.2 0.5,-0.2 2.6,0.4 5.1,0.8 7.7,1.3 1.1,0.2 2.1,0.4 3.2,0.7 0.3,0.1 0.7,0.3 0.9,0.5 2.5,2.3 3.3,5.7 2.2,9 -1,-1.9 -2.5,-3.1 -4.4,-4.1 0,0.3 -0.1,0.5 -0.1,0.7 0,2 0,3.9 0,5.9 0,0.4 0.1,0.7 0.5,0.9 0.1,0.1 0.2,0.1 0.3,0.2 1.8,1.1 1.8,1.1 2.3,3.6 z"
       id="path2"
       style="fill:#dad1d0;fill-opacity:1;stroke-width:0.906001" /><path
       d="m 37.4,15.8 c 0,1.7 0,3.4 0,5.1 -0.6,0 -1.1,0 -1.7,0 0.2,-1.1 -0.6,-1.3 -1.4,-1.5 -2.1,-0.7 -4.2,-0.5 -6.3,0.2 -1.2,0.4 -2.4,1 -3.6,1.2 -2.4,0.5 -4.6,-0.2 -6.3,-2 -0.1,-0.1 -0.3,-0.3 -0.4,-0.5 1.4,0.2 2.6,0.4 3.9,0.6 2.5,0.4 4.8,0 7.1,-1.2 2.5,-1.3 5.3,-1.9 8.1,-1.9 0.2,0 0.4,0 0.6,0 z"
       id="path3"
       style="fill:#e50914;fill-opacity:1;stroke-width:0.906001" /><path
       d="m 27,41 c 0,1.5 0,3 0,4.4 -0.6,0 -1.1,0 -1.6,0 0,-0.2 0,-0.3 0,-0.4 -0.1,-1 -0.1,-1 -1.1,-1.4 -3.1,-1 -6.3,-1.5 -9.6,-1.5 -0.6,0 -1.2,0 -1.7,0 0,0 -0.1,0 -0.2,-0.1 0.2,-0.1 0.4,-0.2 0.6,-0.2 2,-0.6 4.1,-0.8 6.2,-0.8 2.2,0 4.5,0 6.7,0 0.1,0 0.4,0 0.7,0 z"
       id="path4"
       style="fill:#dad1d0;fill-opacity:1;stroke-width:0.906001" /><path
       d="m 35.6,25.6 c 0.1,-0.7 -0.5,-0.8 -0.9,-1 -2,-0.8 -4.1,-1.3 -6.2,-1.4 0.8,-0.5 6.8,-0.8 8.9,-0.5 0,0.9 0,1.9 0,2.9 -0.6,0 -1.2,0 -1.8,0 z"
       id="path5"
       style="fill:#dad1d0;fill-opacity:1;stroke-width:0.906001" /></g><path
     d="m 111.99812,27.067439 2.51223,26.221327 h 7.28993 l 11.19285,-23.417506 1.92903,23.417506 h 7.6264 l 12.44895,-25.256813 c 2.37764,-4.845001 3.47675,-5.473057 5.58521,-5.854377 l 0.2916,-1.413125 h -9.01708 l -0.29159,1.413125 c 2.46735,0.269167 2.78138,1.300973 0.87478,5.652503 L 144.8589,44.89974 143.64765,27.202022 c -0.2916,-3.902917 0.13459,-4.575835 2.55709,-5.024446 l 0.31402,-1.413125 h -15.9257 l -0.29159,1.413125 c 2.3552,0.314028 2.60194,2.489793 1.32339,5.383336 l -7.62639,17.316398 -1.09909,-17.742579 c -0.20188,-3.499169 0.31402,-4.530975 2.89354,-4.957155 l 0.2916,-1.413125 h -16.55375 l -0.33646,1.413125 c 1.772,0.336459 2.44492,1.031806 2.80381,4.889863 z m 59.93448,-7.469378 -12.47139,1.16639 -0.29161,1.368264 0.96452,0.358889 c 1.05423,0.42618 1.3234,0.919654 0.98694,2.400071 l -6.01139,28.262513 h 9.69 l 3.25244,-15.320077 c 0.49348,-2.422501 1.99632,-3.97021 3.47673,-3.97021 1.43556,0 1.99633,1.211251 1.52528,3.342154 l -1.99632,9.667574 c -0.96451,4.575838 0.76265,6.661882 4.57584,6.661882 3.5216,0 6.43757,-1.592568 7.96285,-3.656185 l 0.29159,-1.435551 c -0.49346,0.38131 -1.16638,0.605616 -1.86173,0.605616 -1.12152,0 -1.615,-0.740207 -1.23367,-2.557081 l 1.79443,-8.523616 c 1.16639,-5.405766 -0.98694,-8.119865 -5.69736,-8.119865 -3.92535,0 -7.31236,2.063613 -8.6582,6.190836 z m 22.40814,10.407782 -11.23773,1.300974 -0.29159,1.413125 0.65049,0.201875 c 1.25611,0.448611 1.45799,0.852362 1.63743,2.198195 l 2.64681,22.475432 c -2.35521,1.682295 -7.44695,4.149648 -10.38535,5.383331 v 0.471037 h 8.90493 c 1.03181,-1.637431 2.22063,-3.229998 3.63375,-4.889855 2.10847,-2.400077 4.64312,-5.33848 6.57215,-7.648829 6.0114,-7.200208 9.4657,-13.480767 9.35355,-16.665908 -0.0673,-2.781389 -2.01875,-4.530973 -4.6207,-4.508543 -2.4225,0.02243 -4.39639,1.816875 -4.32909,4.373961 0.0897,2.444931 2.04118,4.35153 4.41882,4.329099 0.47104,-0.02243 0.91965,-0.08973 1.34583,-0.201875 -1.16639,3.252431 -3.61132,6.998336 -6.99833,11.282579 z m 10.83395,14.893897 c 0,5.495487 2.73653,8.747924 6.95348,8.747924 3.58889,0 6.57215,-2.220635 7.67124,-6.258131 -0.0897,0.448611 -0.13457,1.233684 -0.13457,1.637432 -0.0897,3.050557 1.59256,4.508546 4.62069,4.508546 3.5216,0 6.41515,-1.592568 7.89556,-3.656185 l 0.31403,-1.435551 c -0.51591,0.38131 -1.16639,0.605616 -1.90659,0.605616 -1.07667,0 -1.59258,-0.740207 -1.21126,-2.557081 l 5.7198,-26.894249 -12.47139,1.16639 -0.29161,1.368264 0.96451,0.358889 c 1.03182,0.42618 1.30099,0.919654 0.98695,2.400071 l -1.59256,7.648822 c -0.60563,-1.435556 -2.60195,-2.691668 -5.40577,-2.691668 -7.06563,0 -12.11251,6.460004 -12.11251,15.050911 z m 9.86945,1.18882 c 0,-4.912294 1.68229,-13.211604 5.33848,-13.211604 1.00937,0 1.70472,0.583194 1.9066,1.323403 l -2.4225,11.372298 c -0.6505,2.579515 -1.81689,4.015073 -3.11786,4.015073 -1.05423,0 -1.70472,-0.964513 -1.70472,-3.49917 z m 17.85474,-1.18882 c 0,5.495487 2.73652,8.747924 6.95347,8.747924 3.56646,0 6.54972,-2.220635 7.67125,-6.258131 -0.11219,0.448611 -0.15701,1.233684 -0.15701,1.637432 -0.0897,3.050557 1.57014,4.508546 4.6207,4.508546 3.49916,0 6.37028,-1.592568 7.87313,-3.656185 l 0.2916,-1.435551 c -0.49348,0.38131 -1.14396,0.605616 -1.88417,0.605616 -1.0991,0 -1.59258,-0.740207 -1.21125,-2.557081 l 3.4543,-16.194869 h -6.37028 l -3.34215,2.848682 c -0.49348,-1.727153 -2.60195,-3.297294 -5.80952,-3.297294 -7.06563,0 -12.09007,6.460004 -12.09007,15.050911 z m 9.84702,1.18882 c 0,-4.912294 1.70472,-13.211604 5.33847,-13.211604 1.0318,0 1.70472,0.583194 1.92902,1.323403 l -2.44492,11.372298 c -0.6505,2.579515 -1.79445,4.015073 -3.09542,4.015073 -1.07667,0 -1.72715,-0.964513 -1.72715,-3.49917 z m 33.98229,-26.490499 -12.47139,1.16639 -0.2916,1.368264 0.96452,0.358889 c 1.05424,0.42618 1.32341,0.919654 0.98695,2.400071 l -6.0114,28.262513 h 9.69001 l 3.25244,-15.320077 c 0.49346,-2.422501 1.99631,-3.97021 3.47673,-3.97021 1.43556,0 1.99632,1.211251 1.52527,3.342154 l -1.99631,9.667574 c -0.96451,4.575838 0.76263,6.661882 4.57583,6.661882 3.5216,0 6.43757,-1.592568 7.96285,-3.656185 l 0.2916,-1.435551 c -0.49346,0.38131 -1.16638,0.605616 -1.86174,0.605616 -1.12153,0 -1.61499,-0.740207 -1.23368,-2.557081 l 1.79445,-8.523616 c 1.16639,-5.405766 -0.98694,-8.119865 -5.69737,-8.119865 -3.92534,0 -7.31236,2.063613 -8.65819,6.190836 z"
     id="text1"
     style="font-style:italic;font-weight:800;font-size:36.1963px;line-height:1.2;font-family:'New York Extra Large';-inkscape-font-specification:'New York Extra Large Ultra-Bold Italic';text-align:center;text-anchor:middle;fill:#e50914;stroke-width:0.944877;stroke-linejoin:round"
     aria-label="Whydah" /></svg>
